<mxfile host="app.diagrams.net" agent="Mozilla/5.0 (Windows NT 10.0; Win64; x64) AppleWebKit/537.36 (KHTML, like Gecko) Chrome/134.0.0.0 Safari/537.36" version="26.1.1">
  <diagram name="PÃ¡gina-1" id="e_zOG4GtKpRVeKfKok5g">
    <mxGraphModel dx="1434" dy="790" grid="1" gridSize="10" guides="1" tooltips="1" connect="1" arrows="1" fold="1" page="1" pageScale="1" pageWidth="827" pageHeight="1169" math="0" shadow="0">
      <root>
        <mxCell id="0" />
        <mxCell id="1" parent="0" />
        <mxCell id="OiAYPR6sTRpMAYrtwcui-8" style="edgeStyle=orthogonalEdgeStyle;rounded=0;orthogonalLoop=1;jettySize=auto;html=1;entryX=0.5;entryY=0;entryDx=0;entryDy=0;" edge="1" parent="1" source="OiAYPR6sTRpMAYrtwcui-1" target="OiAYPR6sTRpMAYrtwcui-2">
          <mxGeometry relative="1" as="geometry" />
        </mxCell>
        <mxCell id="OiAYPR6sTRpMAYrtwcui-1" value="inicio" style="ellipse;whiteSpace=wrap;html=1;" vertex="1" parent="1">
          <mxGeometry x="354" y="30" width="120" height="80" as="geometry" />
        </mxCell>
        <mxCell id="OiAYPR6sTRpMAYrtwcui-9" style="edgeStyle=orthogonalEdgeStyle;rounded=0;orthogonalLoop=1;jettySize=auto;html=1;entryX=0.5;entryY=0;entryDx=0;entryDy=0;" edge="1" parent="1" source="OiAYPR6sTRpMAYrtwcui-2" target="OiAYPR6sTRpMAYrtwcui-3">
          <mxGeometry relative="1" as="geometry" />
        </mxCell>
        <mxCell id="OiAYPR6sTRpMAYrtwcui-2" value="valor, quantidade" style="shape=parallelogram;perimeter=parallelogramPerimeter;whiteSpace=wrap;html=1;fixedSize=1;" vertex="1" parent="1">
          <mxGeometry x="354" y="170" width="120" height="60" as="geometry" />
        </mxCell>
        <mxCell id="OiAYPR6sTRpMAYrtwcui-10" style="edgeStyle=orthogonalEdgeStyle;rounded=0;orthogonalLoop=1;jettySize=auto;html=1;entryX=0.5;entryY=0;entryDx=0;entryDy=0;" edge="1" parent="1" source="OiAYPR6sTRpMAYrtwcui-3" target="OiAYPR6sTRpMAYrtwcui-6">
          <mxGeometry relative="1" as="geometry" />
        </mxCell>
        <mxCell id="OiAYPR6sTRpMAYrtwcui-3" value="venda = valor*quantidade&lt;div&gt;comissao = (venda *5)/100&lt;/div&gt;" style="rounded=0;whiteSpace=wrap;html=1;" vertex="1" parent="1">
          <mxGeometry x="286" y="290" width="256" height="60" as="geometry" />
        </mxCell>
        <mxCell id="OiAYPR6sTRpMAYrtwcui-11" style="edgeStyle=orthogonalEdgeStyle;rounded=0;orthogonalLoop=1;jettySize=auto;html=1;entryX=0.5;entryY=0;entryDx=0;entryDy=0;" edge="1" parent="1" source="OiAYPR6sTRpMAYrtwcui-6" target="OiAYPR6sTRpMAYrtwcui-7">
          <mxGeometry relative="1" as="geometry">
            <mxPoint x="414" y="520" as="targetPoint" />
          </mxGeometry>
        </mxCell>
        <mxCell id="OiAYPR6sTRpMAYrtwcui-6" value="comissao" style="shape=document;whiteSpace=wrap;html=1;boundedLbl=1;" vertex="1" parent="1">
          <mxGeometry x="354" y="400" width="120" height="80" as="geometry" />
        </mxCell>
        <mxCell id="OiAYPR6sTRpMAYrtwcui-7" value="fim" style="ellipse;whiteSpace=wrap;html=1;aspect=fixed;" vertex="1" parent="1">
          <mxGeometry x="374" y="530" width="80" height="80" as="geometry" />
        </mxCell>
      </root>
    </mxGraphModel>
  </diagram>
</mxfile>
